<svg width="34" height="30" viewBox="0 0 34 30" fill="none" xmlns="http://www.w3.org/2000/svg">
<g id="Plant">
<path id="Vector" d="M27.2491 28.2687C27.2491 28.5918 26.9548 28.8457 26.5952 28.8457H7.40482C7.03867 28.8457 6.75098 28.5918 6.75098 28.2687C6.75098 26.1514 8.54905 23.6937 10.8767 23.6937C11.3541 23.6937 11.8314 23.7745 12.2825 23.9303C12.8252 22.3149 14.2375 21.1207 15.9964 20.7861V12.8995L13.7929 11.1341C13.7294 11.0834 13.6778 11.0221 13.6411 10.9537C13.6044 10.8854 13.5833 10.8113 13.5791 10.7358C13.5748 10.6602 13.5875 10.5847 13.6163 10.5135C13.6452 10.4422 13.6896 10.3767 13.7471 10.3207C13.8047 10.2646 13.8741 10.2191 13.9516 10.1867C14.0291 10.1543 14.113 10.1358 14.1986 10.132C14.2842 10.1283 14.3698 10.1394 14.4505 10.1649C14.5313 10.1903 14.6055 10.2295 14.6691 10.2803L15.9964 11.3361V8.30721L15.8591 8.31298C15.6825 8.33028 15.4994 8.33605 15.3229 8.33605C11.6679 8.33605 8.58828 5.80913 8.31367 2.5899L8.24828 1.84567C8.24177 1.77027 8.25217 1.69448 8.27889 1.62263C8.30561 1.55079 8.34812 1.4843 8.40399 1.42696C8.45986 1.36962 8.528 1.32257 8.6045 1.28849C8.681 1.25442 8.76436 1.23398 8.84982 1.22836L9.69328 1.17067C13.5771 0.922591 16.951 3.52451 17.2387 6.89951L17.3041 7.64374V13.788C17.9484 12.9623 18.8107 12.2872 19.8164 11.8209C20.8222 11.3546 21.9413 11.111 23.0775 11.1111C23.5156 11.1111 23.9537 11.1514 24.3852 11.2207L25.2156 11.3591C25.3856 11.388 25.536 11.4745 25.6341 11.6014C25.6829 11.6639 25.7173 11.7343 25.7352 11.8086C25.7532 11.8828 25.7544 11.9595 25.7387 12.0341L25.5817 12.7668C24.9541 15.6976 22.051 17.8264 18.6706 17.8264C18.2325 17.8264 17.7944 17.7918 17.3629 17.7168L17.3041 17.7053V20.6937C19.331 20.8207 20.9329 22.338 21.6456 23.9534C22.1164 23.7803 22.6133 23.6937 23.1167 23.6937C25.4444 23.6937 27.2491 26.1514 27.2491 28.2687Z" fill="#BDBDBD"/>
</g>
</svg>
