<svg width="21" height="21" viewBox="0 0 21 21" fill="none" xmlns="http://www.w3.org/2000/svg">
<path id="Vector" d="M1.16667 11.6667H8.16667C8.80833 11.6667 9.33333 11.1417 9.33333 10.5V1.16667C9.33333 0.525 8.80833 0 8.16667 0H1.16667C0.525 0 0 0.525 0 1.16667V10.5C0 11.1417 0.525 11.6667 1.16667 11.6667ZM1.16667 21H8.16667C8.80833 21 9.33333 20.475 9.33333 19.8333V15.1667C9.33333 14.525 8.80833 14 8.16667 14H1.16667C0.525 14 0 14.525 0 15.1667V19.8333C0 20.475 0.525 21 1.16667 21ZM12.8333 21H19.8333C20.475 21 21 20.475 21 19.8333V10.5C21 9.85833 20.475 9.33333 19.8333 9.33333H12.8333C12.1917 9.33333 11.6667 9.85833 11.6667 10.5V19.8333C11.6667 20.475 12.1917 21 12.8333 21ZM11.6667 1.16667V5.83333C11.6667 6.475 12.1917 7 12.8333 7H19.8333C20.475 7 21 6.475 21 5.83333V1.16667C21 0.525 20.475 0 19.8333 0H12.8333C12.1917 0 11.6667 0.525 11.6667 1.16667Z" fill="#BDBDBD"/>
</svg>
