<svg width="29" height="29" viewBox="0 0 29 29" fill="none" xmlns="http://www.w3.org/2000/svg">
<g id="Global Energy" clip-path="url(#clip0_87_204)">
<path id="Vector" d="M25.3619 12.0417H25.9661C25.9661 8.9263 24.9628 5.98232 23.0652 3.52834C22.7526 3.1224 22.4156 2.73021 22.0632 2.36278L21.6272 2.78081C21.9644 3.13273 22.2871 3.50813 22.5868 3.8974C24.4023 6.24516 25.3619 9.06142 25.3619 12.0417ZM21.408 1.72234C21.0621 1.40551 20.6963 1.10313 20.3206 0.823457L19.9599 1.30815C20.3192 1.57558 20.6692 1.86498 21 2.16779L21.408 1.72234ZM5.38313 13.3338C4.88167 13.2311 4.48292 12.8414 4.3651 12.343H0.456146C0.516563 14.7204 1.28385 16.9679 2.68854 18.877C3.63406 18.2578 4.75781 17.7473 6.00542 17.3606C5.68219 16.1281 5.46771 14.7718 5.38313 13.3338ZM5.38313 10.748C5.46771 9.30708 5.68219 7.95072 6.00542 6.71517C4.75479 6.32548 3.625 5.81798 2.68854 5.20777C1.28385 7.11697 0.516563 9.36142 0.456146 11.7388H4.3651C4.48292 11.2404 4.88167 10.8507 5.38313 10.748ZM5.66406 11.325C5.25323 11.325 4.93302 11.6482 4.93302 12.0409C4.93302 12.4366 5.25323 12.7568 5.64594 12.7568H5.66406C6.59146 12.7327 6.58844 11.3492 5.66406 11.325ZM9.50052 23.3328C8.07771 22.2906 6.89958 20.3875 6.16854 17.9436C5.0025 18.3062 3.94823 18.7774 3.0601 19.3513C4.7276 21.3965 6.96906 22.774 9.50052 23.3328ZM9.50052 0.749023C9.47031 0.758086 9.43708 0.761107 9.40688 0.7702C6.94792 1.33207 4.70948 2.70652 3.0601 4.73051C3.93917 5.29843 4.99646 5.76971 6.16854 6.1352C6.9026 3.69434 8.07771 1.79124 9.50052 0.749023Z" fill="#BDBDBD"/>
<path id="Vector_2" d="M6.76064 6.30439C7.99616 6.63967 9.34043 6.86016 10.7391 6.94176C10.8629 6.46447 11.2496 6.10499 11.7148 5.99929V0.489288C9.62137 0.691654 7.7696 2.98148 6.76064 6.30439ZM11.7148 8.56092C11.2164 8.44308 10.8237 8.04735 10.724 7.54287C9.27699 7.45829 7.87835 7.23475 6.59449 6.88436C6.28033 8.07759 6.06884 9.38259 5.9873 10.7661C6.46158 10.89 6.82408 11.2737 6.9298 11.7389H11.7148V8.56092ZM11.7148 12.343H6.9298C6.82408 12.7962 6.47366 13.1888 5.9873 13.3188C6.06887 14.6962 6.28033 16.0012 6.59449 17.1914C8.16227 16.7655 9.9023 16.5299 11.7148 16.5057V12.343ZM11.7148 23.5926V17.1099C9.95668 17.134 8.27408 17.3606 6.75762 17.7715C7.76658 21.1004 9.61835 23.3902 11.7148 23.5926ZM11.301 7.26499C11.301 7.67582 11.6212 7.996 12.0169 7.996C12.4096 7.996 12.7298 7.67582 12.7298 7.28009C12.7087 6.3285 11.3221 6.34058 11.301 7.26499ZM13.2917 6.94173C14.6903 6.86016 16.0346 6.63964 17.2701 6.30436C16.2612 2.98145 14.4124 0.691623 12.319 0.489258V5.99926C12.7751 6.10496 13.1648 6.45842 13.2917 6.94173ZM17.2731 17.7714C15.7567 17.3606 14.0741 17.134 12.319 17.1099V23.5926C14.4124 23.3902 16.2642 21.1004 17.2731 17.7714ZM12.319 16.5057C14.1285 16.5299 15.8654 16.7655 17.4363 17.1914C17.7504 16.0012 17.9619 14.6962 18.0404 13.3188C17.5782 13.1949 17.2097 12.8233 17.0979 12.343H12.319V16.5057ZM13.3098 7.54287C13.2071 8.04735 12.8144 8.44308 12.319 8.56092V11.7388H17.0979C17.2067 11.2645 17.5782 10.8869 18.0404 10.7661C17.9619 9.38256 17.7504 8.07756 17.4332 6.88735C16.1494 7.23475 14.7538 7.45829 13.3098 7.54287Z" fill="#BDBDBD"/>
<path id="Vector_3" d="M17.8622 6.1352C19.0343 5.76968 20.0916 5.29843 20.9706 4.73051C19.3424 2.73374 17.1191 1.32002 14.5302 0.749023C15.953 1.79124 17.1281 3.69434 17.8622 6.1352ZM20.9706 19.3513C20.0825 18.7774 19.0282 18.3061 17.8622 17.9436C17.1312 20.3875 15.953 22.2906 14.5302 23.3328C17.1614 22.7528 19.3726 21.3149 20.9706 19.3513ZM18.3637 12.7568H18.3788C18.7745 12.7568 19.0947 12.4367 19.0947 12.0409C19.0947 11.6482 18.7745 11.325 18.3788 11.325C17.4272 11.3492 17.4423 12.7327 18.3637 12.7568ZM19.6626 12.343C19.5448 12.8414 19.146 13.2311 18.6416 13.3338C18.56 14.7718 18.3485 16.1281 18.0253 17.3606C19.2729 17.7473 20.3967 18.2578 21.3422 18.8771C22.7469 16.9679 23.5142 14.7204 23.5746 12.343H19.6626ZM21.3422 5.20777C20.4057 5.81798 19.2759 6.3285 18.0223 6.71517C18.3485 7.95072 18.56 9.30708 18.6416 10.748C19.146 10.8507 19.5448 11.2404 19.6626 11.7388H23.5746C23.5142 9.36142 22.7469 7.11697 21.3422 5.20777Z" fill="#BDBDBD"/>
<path id="Vector_4" d="M22.3835 26.7197H18.2066V27.3239H22.3835V26.7197Z" fill="#BDBDBD"/>
<path id="Vector_5" d="M17.4761 26.7197H14.7377V27.3239H17.4761V26.7197Z" fill="#BDBDBD"/>
<path id="Vector_6" d="M14.0904 26.7197H12.8455V27.3239H14.0904V26.7197Z" fill="#BDBDBD"/>
<path id="Vector_7" d="M3.47388 26.9928H4.07804C4.07804 26.6392 4.16803 26.2895 4.33808 25.9814L3.80913 25.6893C3.58982 26.0865 3.47388 26.5373 3.47388 26.9928ZM5.05465 25.2191C5.35244 25.0297 5.69585 24.9182 6.04763 24.8966L6.01074 24.2937C5.55701 24.3214 5.11422 24.4652 4.73042 24.7093L5.05465 25.2191ZM25.1454 27.0483C25.0729 27.5347 24.65 27.9062 24.1455 27.9062H6.17761C5.67313 27.9062 5.26532 27.4954 5.26532 26.994C5.26532 26.4894 5.67313 26.0787 6.17761 26.0787H10.6998C11.5909 26.0787 12.319 25.3537 12.319 24.4595V24.2571V24.1997L12.0169 24.2268L11.7148 24.1997V24.2571V24.4594C11.7148 25.0213 11.2587 25.4745 10.6998 25.4745H6.17761C5.34084 25.4745 4.66116 26.1572 4.66116 26.9939C4.66116 27.8307 5.34084 28.5104 6.17761 28.5104H24.1455C24.9883 28.5104 25.6771 27.87 25.7556 27.0483C25.659 27.0574 25.5623 27.0634 25.4626 27.0634C25.3539 27.0634 25.2481 27.0574 25.1454 27.0483Z" fill="#BDBDBD"/>
<path id="Vector_8" d="M26.9035 21.0041V19.0405H26.2994V21.0041H24.6258V19.0405H24.0217V21.0041H22.3844V22.2124H28.5438V21.0041H26.9035Z" fill="#BDBDBD"/>
<path id="Vector_9" d="M27.8833 22.8164V24.0429C27.8833 25.3751 26.7988 26.4596 25.4636 26.4596C24.1314 26.4596 23.0439 25.3751 23.0439 24.0429V22.8164H27.8833Z" fill="#BDBDBD"/>
</g>
<defs>
<clipPath id="clip0_87_204">
<rect width="29" height="29" fill="white"/>
</clipPath>
</defs>
</svg>
