<svg width="29" height="29" viewBox="0 0 29 29" fill="none" xmlns="http://www.w3.org/2000/svg">
<g id="monitor_svgrepo.com">
<path id="Vector" fill-rule="evenodd" clip-rule="evenodd" d="M1.20834 6.0415C1.20834 4.03948 2.83132 2.4165 4.83334 2.4165H24.1667C26.1688 2.4165 27.7917 4.03948 27.7917 6.0415V19.3332C27.7917 21.3353 26.1688 22.9582 24.1667 22.9582H20.5417V25.3748H21.75C22.4174 25.3748 22.9583 25.9158 22.9583 26.5832C22.9583 27.2505 22.4174 27.7915 21.75 27.7915H19.3333H9.66668H7.25001C6.58267 27.7915 6.04168 27.2505 6.04168 26.5832C6.04168 25.9158 6.58267 25.3748 7.25001 25.3748H8.45834V22.9582H4.83334C2.83132 22.9582 1.20834 21.3353 1.20834 19.3332V6.0415ZM18.125 25.3748V22.9582H10.875V25.3748H18.125ZM24.1667 20.5415H19.3333H9.66668H4.83334C4.16601 20.5415 3.62501 20.0005 3.62501 19.3332V6.0415C3.62501 5.37417 4.16601 4.83317 4.83334 4.83317H24.1667C24.834 4.83317 25.375 5.37417 25.375 6.0415V19.3332C25.375 20.0005 24.834 20.5415 24.1667 20.5415ZM5.43751 6.0415C5.10384 6.0415 4.83334 6.312 4.83334 6.64567V17.5207C4.83334 17.8543 5.10384 18.1248 5.43751 18.1248H23.5625C23.8961 18.1248 24.1667 17.8543 24.1667 17.5207V6.64567C24.1667 6.312 23.8961 6.0415 23.5625 6.0415H5.43751Z" fill="#BDBDBD"/>
</g>
</svg>
