<svg width="29" height="29" viewBox="0 0 29 29" fill="none" xmlns="http://www.w3.org/2000/svg">
<g id="Employee">
<path id="Vector" d="M22.784 21.5927L17.216 18.1253V15.3984C16.422 15.9634 15.4718 16.2674 14.4973 16.2684C13.5227 16.2674 12.5726 15.9634 11.7785 15.3984V18.1253L6.21598 21.5927C5.69355 21.9183 5.26267 22.3717 4.96395 22.91C4.66523 23.4483 4.50853 24.0538 4.50861 24.6694V28.5481H24.4932V24.6703C24.4929 24.0544 24.3359 23.4487 24.0369 22.9103C23.7378 22.3719 23.3067 21.9184 22.784 21.5927Z" fill="#EAEDDD"/>
<path id="Vector_2" d="M19.0312 6.96544V11.7368C19.0312 12.9386 18.5539 14.0911 17.7041 14.9409C16.8543 15.7907 15.7018 16.2681 14.5 16.2681C13.2982 16.2681 12.1457 15.7907 11.2959 14.9409C10.4461 14.0911 9.96875 12.9386 9.96875 11.7368V6.79688" fill="#EAEDDD"/>
<path id="Vector_3" d="M14.5 21.2966C13.66 21.2963 12.8314 21.1015 12.0792 20.7274C11.327 20.3534 10.6717 19.8103 10.1645 19.1406H10.1482L6.21507 21.5911C5.69264 21.9168 5.26175 22.3701 4.96303 22.9084C4.66432 23.4467 4.50761 24.0522 4.50769 24.6678V28.5466H24.4923V24.6688C24.4923 24.053 24.3355 23.4475 24.0366 22.9092C23.7377 22.3709 23.3066 21.9176 22.784 21.592L18.8482 19.1406H18.8355C18.3283 19.8103 17.673 20.3534 16.9208 20.7274C16.1686 21.1015 15.34 21.2963 14.5 21.2966Z" fill="#BDBDBD"/>
<path id="Vector_4" d="M12.8407 3.49178C13.4046 3.28158 14.0014 3.17326 14.6033 3.17188C15.167 3.17188 15.708 3.26703 16.2155 3.4365C16.5536 3.12022 16.7656 2.71422 16.7656 2.26563C16.7656 1.26422 15.7515 0.453125 14.5 0.453125C13.2485 0.453125 12.2344 1.26422 12.2344 2.26563C12.2344 2.7405 12.4673 3.16916 12.8407 3.49178Z" fill="#BDBDBD"/>
<path id="Vector_5" d="M13.8964 3.2065C11.6399 3.46569 9.7748 5.28 9.46215 7.52931C9.32919 8.45607 9.45333 9.40154 9.82102 10.2626L9.86452 10.8607C9.86446 10.0548 10.1374 9.27271 10.6389 8.64188C11.1404 8.01106 11.8408 7.56873 12.6259 7.38703L12.8316 7.47222C14.0876 7.9915 15.4153 8.31956 16.7683 8.44372C17.351 8.44372 17.9097 8.67516 18.3217 9.08713C18.7336 9.4991 18.9651 10.0579 18.9651 10.6405L19.1264 10.3822C19.5029 9.56014 19.6537 8.65266 19.5632 7.75304C19.4728 6.85341 19.1445 5.99409 18.6119 5.26342C18.0793 4.53274 17.3618 3.95706 16.5331 3.59556C15.7043 3.23405 14.7943 3.09977 13.8964 3.2065Z" fill="#BDBDBD"/>
<path id="Vector_6" d="M24.4923 28.9996C24.3721 28.9996 24.2569 28.9519 24.1719 28.8669C24.0869 28.7819 24.0392 28.6667 24.0392 28.5465V24.6687C24.0409 24.1295 23.9043 23.5988 23.6426 23.1275C23.3808 22.6561 23.0025 22.2597 22.5439 21.9762L16.9768 18.5089C16.8808 18.4428 16.8139 18.3422 16.7901 18.2281C16.7663 18.114 16.7874 17.9951 16.8491 17.8961C16.9107 17.7972 17.0081 17.7258 17.121 17.6968C17.2339 17.6678 17.3536 17.6834 17.4553 17.7404L23.0224 21.2077C23.6123 21.572 24.0989 22.0816 24.4355 22.6877C24.7722 23.2939 24.9478 23.9762 24.9454 24.6696V28.5465C24.9454 28.6667 24.8977 28.7819 24.8127 28.8669C24.7278 28.9519 24.6125 28.9996 24.4923 28.9996ZM4.50769 28.9996C4.38751 28.9996 4.27226 28.9519 4.18728 28.8669C4.10231 28.7819 4.05457 28.6667 4.05457 28.5465V24.6677C4.05457 23.2504 4.77232 21.9562 5.97582 21.2068L11.5393 17.7395C11.6413 17.6759 11.7644 17.6555 11.8815 17.6826C11.9395 17.6961 11.9943 17.7209 12.0427 17.7555C12.0911 17.7901 12.1322 17.8339 12.1637 17.8845C12.1952 17.935 12.2164 17.9912 12.2261 18.0499C12.2359 18.1087 12.234 18.1687 12.2205 18.2267C12.207 18.2847 12.1823 18.3394 12.1477 18.3879C12.113 18.4363 12.0692 18.4774 12.0187 18.5089L6.45522 21.9762C5.9969 22.2597 5.6189 22.656 5.35728 23.1272C5.09567 23.5984 4.95917 24.1288 4.96082 24.6677V28.5465C4.96082 28.6667 4.91308 28.7819 4.8281 28.8669C4.74312 28.9519 4.62787 28.9996 4.50769 28.9996Z" fill="#BDBDBD"/>
<path id="Vector_7" d="M17.6691 18.1249H16.7629V16.1937C16.0569 16.5368 15.2822 16.7151 14.4973 16.7151C13.7123 16.7151 12.9376 16.5368 12.2316 16.1937V18.1249H11.3254V14.5244L12.0395 15.0283C12.7602 15.5318 13.6181 15.8019 14.4973 15.8019C15.3764 15.8019 16.2344 15.5318 16.955 15.0283L17.6691 14.5244V18.1249ZM8.60936 28.9999C8.48919 28.9999 8.37393 28.9522 8.28896 28.8672C8.20398 28.7823 8.15624 28.667 8.15624 28.5468V26.3782C8.1565 25.7605 7.92569 25.165 7.50918 24.7089L6.89927 24.0409C6.8591 23.997 6.82799 23.9455 6.80771 23.8895C6.78743 23.8335 6.77838 23.7741 6.78107 23.7146C6.78377 23.6551 6.79815 23.5967 6.82341 23.5428C6.84866 23.4888 6.8843 23.4404 6.92827 23.4002C6.97224 23.3601 7.0237 23.329 7.0797 23.3087C7.1357 23.2884 7.19514 23.2793 7.25464 23.282C7.31413 23.2847 7.37251 23.2991 7.42645 23.3244C7.48039 23.3496 7.52882 23.3853 7.56899 23.4292L8.1789 24.0971C8.74802 24.7224 9.06249 25.5317 9.06249 26.3782V28.5468C9.06249 28.667 9.01475 28.7823 8.92977 28.8672C8.8448 28.9522 8.72954 28.9999 8.60936 28.9999ZM20.3906 28.9999C20.2704 28.9999 20.1552 28.9522 20.0702 28.8672C19.9852 28.7823 19.9375 28.667 19.9375 28.5468V26.3782C19.9375 25.5317 20.252 24.7215 20.822 24.0971L21.4319 23.4292C21.4721 23.3853 21.5205 23.3496 21.5744 23.3244C21.6284 23.2991 21.6868 23.2847 21.7463 23.282C21.8057 23.2793 21.8652 23.2884 21.9212 23.3087C21.9772 23.329 22.0286 23.3601 22.0726 23.4002C22.1166 23.4404 22.1522 23.4888 22.1775 23.5428C22.2027 23.5967 22.2171 23.6551 22.2198 23.7146C22.2225 23.7741 22.2135 23.8335 22.1932 23.8895C22.1729 23.9455 22.1418 23.997 22.1016 24.0409L21.4917 24.7089C21.0743 25.1645 20.843 25.7602 20.8437 26.3782V28.5468C20.8437 28.667 20.796 28.7823 20.711 28.8672C20.626 28.9522 20.5108 28.9999 20.3906 28.9999Z" fill="#BDBDBD"/>
<path id="Vector_8" d="M14.5 16.722C13.1785 16.7206 11.9115 16.195 10.9771 15.2605C10.0427 14.3261 9.51706 13.0591 9.51562 11.7376V10.4218C9.51562 10.3016 9.56336 10.1863 9.64834 10.1013C9.73332 10.0164 9.84857 9.96863 9.96875 9.96863C10.0889 9.96863 10.2042 10.0164 10.2892 10.1013C10.3741 10.1863 10.4219 10.3016 10.4219 10.4218V11.7376C10.4219 13.986 12.2516 15.8158 14.5 15.8158C16.7484 15.8158 18.5781 13.986 18.5781 11.7376V9.68407C18.5781 9.56389 18.6259 9.44864 18.7108 9.36366C18.7958 9.27868 18.9111 9.23094 19.0312 9.23094C19.1514 9.23094 19.2667 9.27868 19.3517 9.36366C19.4366 9.44864 19.4844 9.56389 19.4844 9.68407V11.7376C19.4844 14.4854 17.2487 16.722 14.5 16.722ZM16.8726 8.89563C15.1041 8.90011 13.38 8.34182 11.9498 7.30154C11.8996 7.26743 11.8568 7.22359 11.8239 7.17262C11.7909 7.12165 11.7686 7.06458 11.7581 7.00481C11.7477 6.94504 11.7493 6.88377 11.763 6.82465C11.7767 6.76553 11.8021 6.70976 11.8377 6.66065C11.8734 6.61153 11.9185 6.57008 11.9705 6.53874C12.0224 6.5074 12.0802 6.48682 12.1402 6.47821C12.2003 6.46961 12.2615 6.47315 12.3202 6.48864C12.3788 6.50413 12.4338 6.53125 12.4818 6.56838C13.7575 7.49601 15.2952 7.99397 16.8726 7.99029C16.9891 7.9955 17.0992 8.04547 17.1798 8.1298C17.2604 8.21412 17.3054 8.32629 17.3054 8.44296C17.3054 8.55963 17.2604 8.6718 17.1798 8.75612C17.0992 8.84044 16.9891 8.89041 16.8726 8.89563Z" fill="#BDBDBD"/>
<path id="Vector_9" d="M9.96875 11.3134C9.84858 11.3134 9.73332 11.2657 9.64835 11.1807C9.56337 11.0957 9.51563 10.9805 9.51563 10.8603C9.51181 9.95086 9.81814 9.06729 10.3841 8.35538C10.95 7.64348 11.7417 7.14577 12.6286 6.94439C12.7431 6.92421 12.861 6.94875 12.958 7.01295C13.055 7.07715 13.1236 7.17612 13.1498 7.28944C13.1759 7.40276 13.1576 7.5218 13.0986 7.622C13.0395 7.7222 12.9443 7.79593 12.8325 7.82798C12.1459 7.98402 11.5329 8.36947 11.0949 8.92074C10.6568 9.47201 10.4197 10.1562 10.4228 10.8603C10.4225 10.9806 10.3746 11.0958 10.2895 11.1808C10.2044 11.2657 10.089 11.3134 9.96875 11.3134Z" fill="#BDBDBD"/>
<path id="Vector_10" d="M19.0693 11.0925C18.9491 11.0925 18.8339 11.0448 18.7489 10.9598C18.6639 10.8748 18.6162 10.7596 18.6162 10.6394C18.6157 10.1771 18.4318 9.73387 18.1049 9.40698C17.7781 9.08009 17.3348 8.89623 16.8725 8.89575C16.7524 8.89575 16.6371 8.84801 16.5521 8.76303C16.4672 8.67806 16.4194 8.5628 16.4194 8.44263C16.4194 8.32245 16.4672 8.20719 16.5521 8.12222C16.6371 8.03724 16.7524 7.9895 16.8725 7.9895C17.8286 7.9895 18.6678 8.49881 19.1336 9.25916C19.2025 8.93834 19.2388 8.60213 19.2388 8.25956C19.2376 7.03069 18.7489 5.85247 17.8801 4.98344C17.0112 4.1144 15.8331 3.62553 14.6042 3.62409C13.8376 3.62535 13.0832 3.81646 12.4085 4.18034C11.7338 4.54423 11.1596 5.06956 10.7374 5.70943C10.3152 6.34929 10.0581 7.08376 9.98893 7.84724C9.91979 8.61073 10.0408 9.37945 10.3412 10.0848C10.3884 10.1952 10.3899 10.3199 10.3452 10.4314C10.3005 10.5429 10.2133 10.632 10.1029 10.6793C9.99242 10.7265 9.86774 10.7279 9.75625 10.6832C9.64476 10.6385 9.55559 10.5513 9.50836 10.4409C9.14928 9.59785 9.0046 8.67898 9.08725 7.76638C9.16991 6.85377 9.47731 5.97585 9.98202 5.21102C10.4867 4.4462 11.173 3.8183 11.9796 3.3834C12.7861 2.9485 13.6879 2.72015 14.6042 2.71875C15.5326 2.71999 16.4457 2.95425 17.2601 3.40004C18.0744 3.84583 18.7638 4.48889 19.265 5.27029C19.7663 6.05168 20.0634 6.9464 20.1291 7.87242C20.1948 8.79845 20.027 9.72616 19.6411 10.5705L19.4526 10.8795C19.4122 10.9448 19.3557 10.9985 19.2886 11.0358C19.2215 11.0731 19.146 11.0926 19.0693 11.0925Z" fill="#BDBDBD"/>
<path id="Vector_11" d="M16.8726 8.89563C15.1041 8.90011 13.38 8.34182 11.9498 7.30154C11.8996 7.26743 11.8568 7.22359 11.8239 7.17262C11.791 7.12165 11.7686 7.06458 11.7581 7.00481C11.7477 6.94504 11.7494 6.88377 11.763 6.82465C11.7767 6.76553 11.8021 6.70976 11.8377 6.66065C11.8734 6.61153 11.9185 6.57008 11.9705 6.53874C12.0224 6.5074 12.0802 6.48682 12.1402 6.47821C12.2003 6.46961 12.2615 6.47315 12.3202 6.48864C12.3788 6.50413 12.4338 6.53125 12.4818 6.56838C13.7575 7.49601 15.2952 7.99397 16.8726 7.99029C16.9891 7.9955 17.0992 8.04548 17.1798 8.1298C17.2604 8.21412 17.3054 8.32629 17.3054 8.44296C17.3054 8.55963 17.2604 8.6718 17.1798 8.75612C17.0992 8.84044 16.9891 8.89042 16.8726 8.89563Z" fill="#BDBDBD"/>
<path id="Vector_12" d="M9.96875 11.3134C9.84858 11.3134 9.73332 11.2657 9.64835 11.1807C9.56337 11.0957 9.51563 10.9805 9.51563 10.8603C9.51181 9.95086 9.81814 9.06729 10.3841 8.35538C10.95 7.64348 11.7417 7.14577 12.6286 6.94439C12.7431 6.92421 12.861 6.94875 12.958 7.01295C13.055 7.07715 13.1236 7.17612 13.1498 7.28944C13.1759 7.40276 13.1576 7.5218 13.0986 7.622C13.0395 7.7222 12.9443 7.79593 12.8325 7.82798C12.1459 7.98402 11.5329 8.36947 11.0949 8.92074C10.6568 9.47201 10.4197 10.1562 10.4228 10.8603C10.4225 10.9806 10.3746 11.0958 10.2895 11.1808C10.2044 11.2657 10.089 11.3134 9.96875 11.3134Z" fill="#BDBDBD"/>
<path id="Vector_13" d="M19.0693 11.0925C18.9491 11.0925 18.8339 11.0448 18.7489 10.9598C18.6639 10.8748 18.6162 10.7596 18.6162 10.6394C18.6157 10.1771 18.4318 9.73387 18.1049 9.40698C17.7781 9.08009 17.3348 8.89623 16.8725 8.89575C16.7524 8.89575 16.6371 8.84801 16.5521 8.76303C16.4672 8.67806 16.4194 8.5628 16.4194 8.44263C16.4194 8.32245 16.4672 8.20719 16.5521 8.12222C16.6371 8.03724 16.7524 7.9895 16.8725 7.9895C17.8286 7.9895 18.6678 8.49881 19.1336 9.25916C19.2025 8.93834 19.2388 8.60213 19.2388 8.25956C19.2376 7.03069 18.7489 5.85247 17.8801 4.98344C17.0112 4.1144 15.8331 3.62553 14.6042 3.62409C13.8376 3.62535 13.0832 3.81646 12.4085 4.18034C11.7338 4.54423 11.1596 5.06956 10.7374 5.70943C10.3152 6.34929 10.0581 7.08376 9.98893 7.84724C9.91979 8.61073 10.0408 9.37945 10.3412 10.0848C10.3884 10.1952 10.3899 10.3199 10.3452 10.4314C10.3005 10.5429 10.2133 10.632 10.1029 10.6793C9.99242 10.7265 9.86774 10.7279 9.75625 10.6832C9.64476 10.6385 9.55559 10.5513 9.50836 10.4409C9.14928 9.59785 9.0046 8.67898 9.08725 7.76638C9.16991 6.85377 9.47731 5.97585 9.98202 5.21102C10.4867 4.4462 11.173 3.8183 11.9796 3.3834C12.7861 2.9485 13.6879 2.72015 14.6042 2.71875C15.5326 2.71999 16.4457 2.95425 17.2601 3.40004C18.0744 3.84583 18.7638 4.48889 19.265 5.27029C19.7663 6.05168 20.0634 6.9464 20.1291 7.87242C20.1948 8.79845 20.027 9.72616 19.6411 10.5705L19.4526 10.8795C19.4122 10.9448 19.3557 10.9985 19.2886 11.0358C19.2215 11.0731 19.146 11.0926 19.0693 11.0925Z" fill="#BDBDBD"/>
<path id="Vector_14" d="M12.8406 3.94581C12.7318 3.94583 12.6266 3.90657 12.5443 3.83525C12.0522 3.40841 11.7812 2.85106 11.7812 2.26562C11.7812 1.01681 13.0011 0 14.5 0C15.9989 0 17.2187 1.01681 17.2187 2.26562C17.2187 2.81481 16.9731 3.34859 16.5255 3.76728C16.4659 3.82312 16.3923 3.86179 16.3125 3.87918C16.2327 3.89657 16.1497 3.89204 16.0723 3.86606C15.0723 3.52912 13.9867 3.54704 12.9983 3.91681C12.9479 3.93585 12.8945 3.94567 12.8406 3.94581ZM14.5 0.90625C13.5004 0.90625 12.6875 1.51616 12.6875 2.26562C12.6875 2.51303 12.7836 2.75681 12.963 2.9725C13.9734 2.65393 15.0546 2.63598 16.0751 2.92084C16.2037 2.75228 16.3125 2.53116 16.3125 2.26562C16.3125 1.51616 15.4996 0.90625 14.5 0.90625ZM14.5 21.75C13.5903 21.7476 12.6934 21.5357 11.8788 21.1307C11.0642 20.7257 10.3539 20.1385 9.8029 19.4146C9.73031 19.3187 9.69879 19.1979 9.71528 19.0787C9.73177 18.9596 9.7949 18.8519 9.8908 18.7793C9.98671 18.7067 10.1075 18.6752 10.2267 18.6917C10.3458 18.7082 10.4535 18.7713 10.5261 18.8672C11.4622 20.1052 12.9476 20.8438 14.5 20.8438C16.0524 20.8438 17.5377 20.1052 18.4739 18.8672C18.5465 18.7713 18.6542 18.7082 18.7733 18.6917C18.8925 18.6752 19.0133 18.7067 19.1092 18.7793C19.2051 18.8519 19.2682 18.9596 19.2847 19.0787C19.3012 19.1979 19.2697 19.3187 19.1971 19.4146C18.6461 20.1385 17.9358 20.7257 17.1212 21.1307C16.3066 21.5357 15.4097 21.7476 14.5 21.75Z" fill="#BDBDBD"/>
</g>
</svg>
