<svg width="29" height="29" viewBox="0 0 29 29" fill="none" xmlns="http://www.w3.org/2000/svg">
<path fill-rule="evenodd" clip-rule="evenodd" d="M1.20834 6.04199C1.20834 4.03997 2.83132 2.41699 4.83334 2.41699H24.1667C26.1688 2.41699 27.7917 4.03997 27.7917 6.04199V19.3337C27.7917 21.3357 26.1688 22.9587 24.1667 22.9587H20.5417V25.3753H21.75C22.4174 25.3753 22.9583 25.9163 22.9583 26.5837C22.9583 27.251 22.4174 27.792 21.75 27.792H19.3333H9.66668H7.25001C6.58267 27.792 6.04168 27.251 6.04168 26.5837C6.04168 25.9163 6.58267 25.3753 7.25001 25.3753H8.45834V22.9587H4.83334C2.83132 22.9587 1.20834 21.3357 1.20834 19.3337V6.04199ZM18.125 25.3753V22.9587H10.875V25.3753H18.125ZM24.1667 20.542H19.3333H9.66668H4.83334C4.16601 20.542 3.62501 20.001 3.62501 19.3337V6.04199C3.62501 5.37465 4.16601 4.83366 4.83334 4.83366H24.1667C24.834 4.83366 25.375 5.37465 25.375 6.04199V19.3337C25.375 20.001 24.834 20.542 24.1667 20.542ZM5.43751 6.04199C5.10384 6.04199 4.83334 6.31249 4.83334 6.64616V17.5212C4.83334 17.8548 5.10384 18.1253 5.43751 18.1253H23.5625C23.8961 18.1253 24.1667 17.8548 24.1667 17.5212V6.64616C24.1667 6.31249 23.8961 6.04199 23.5625 6.04199H5.43751Z" fill="#009444"/>
</svg>
