<svg width="29" height="29" viewBox="0 0 29 29" fill="none" xmlns="http://www.w3.org/2000/svg">
<path fill-rule="evenodd" clip-rule="evenodd" d="M17.5595 14.746C17.5305 14.746 17.516 14.7315 17.487 14.7315C16.4285 15.8915 14.732 17.6605 14.674 17.733L9.01899 23.3735L8.36649 25.795C8.35199 25.882 8.27949 25.9545 8.20699 25.969L4.87199 26.868C4.84299 26.868 4.82849 26.868 4.81399 26.868C4.74149 26.868 4.68349 26.8535 4.63999 26.7955L2.20399 24.3595C2.13149 24.3015 2.11699 24.2145 2.13149 24.1275L3.03049 20.7925C3.04499 20.72 3.11749 20.6475 3.20449 20.633L5.62599 19.9805L11.2665 14.3255C11.339 14.2675 13.05 12.6145 14.268 11.498C14.239 11.4255 14.268 11.3385 14.326 11.266L19.981 5.62553L20.6335 3.20403C20.648 3.11703 20.7205 3.04453 20.793 3.03003L24.128 2.13103C24.215 2.11653 24.302 2.13103 24.36 2.20353L26.796 4.63953C26.8685 4.69753 26.883 4.78453 26.8685 4.87153L25.9695 8.20653C25.955 8.27903 25.8825 8.35153 25.7955 8.36603L23.374 9.01853L17.7335 14.6735C17.6755 14.717 17.6175 14.746 17.5595 14.746Z" fill="#009444"/>
<path fill-rule="evenodd" clip-rule="evenodd" d="M22.736 8.03306C22.678 8.03306 22.62 8.00406 22.5765 7.96056L21.0395 6.42356C20.9815 6.36556 20.9525 6.27856 20.9815 6.19156L21.5325 4.10356C21.5615 4.03106 21.6195 3.95856 21.7065 3.94406L23.7945 3.37856C23.8815 3.34956 23.9685 3.37856 24.0265 3.43656L25.5635 4.97356C25.6215 5.03156 25.6505 5.11856 25.6215 5.20556L25.056 7.29356C25.0415 7.38056 24.969 7.43856 24.8965 7.46756L22.8085 8.01856C22.7795 8.03306 22.765 8.03306 22.736 8.03306ZM5.1475 25.6361C5.075 25.6361 5.017 25.6071 4.9735 25.5636L3.4365 24.0266C3.3785 23.9686 3.3495 23.8816 3.3785 23.7946L3.944 21.7066C3.9585 21.6196 4.031 21.5616 4.1035 21.5326L6.1915 20.9816C6.2785 20.9526 6.3655 20.9816 6.4235 21.0396L7.9605 22.5766C8.0185 22.6346 8.0475 22.7216 8.0185 22.8086L7.4675 24.8966C7.4385 24.9691 7.3805 25.0416 7.2935 25.0561L5.2055 25.6216C5.1765 25.6216 5.162 25.6361 5.1475 25.6361Z" fill="white"/>
<path fill-rule="evenodd" clip-rule="evenodd" d="M24.3165 26.7234C23.6785 26.7234 23.0695 26.4624 22.62 26.0129L6.8585 10.2659C6.67 10.2949 6.4815 10.3094 6.293 10.3094C5.22 10.3094 4.2195 9.88887 3.451 9.13487C2.465 8.13437 2.059 6.71337 2.3925 5.35037C2.407 5.26337 2.4795 5.19087 2.5665 5.17637C2.639 5.14737 2.7405 5.17637 2.7985 5.23437L5.104 7.53987L7.54 5.10387L5.2345 2.79837C5.1765 2.74037 5.1475 2.63887 5.1765 2.56637C5.191 2.47937 5.2635 2.40687 5.3505 2.39237C5.655 2.31987 5.974 2.27637 6.293 2.27637C7.366 2.27637 8.3665 2.69687 9.135 3.45087C10.0195 4.34987 10.44 5.61137 10.266 6.85837L26.013 22.6199C26.4625 23.0694 26.7235 23.6784 26.7235 24.3164C26.7235 24.9544 26.4625 25.5634 26.013 26.0129C25.5635 26.4624 24.9545 26.7234 24.3165 26.7234Z" fill="#2DAA67"/>
</svg>
