<svg width="24" height="24" viewBox="0 0 24 24" fill="none" xmlns="http://www.w3.org/2000/svg">
<path d="M17.069 0C19.0568 0 20.7898 1.3156 21.2731 3.19157L21.7868 5.19009H23.0043C23.5107 5.19009 23.9292 5.55618 23.9955 6.03118L24.0045 6.16323C24.0045 6.6559 23.6282 7.06305 23.1401 7.12748L23.0043 7.13637H22.2895L22.5669 8.20877C23.4322 8.72101 24.01 9.64708 24.01 10.7046V21.7293C24.01 22.9834 22.9651 24 21.6762 24H19.6704C18.3815 24 17.3366 22.9834 17.3366 21.7293L17.3353 20.1116H6.67326L6.67337 21.7293C6.67337 22.9834 5.6285 24 4.33959 24H2.33377C1.04486 24 0 22.9834 0 21.7293V10.7046C0 9.64733 0.577656 8.72127 1.44263 8.20898L1.71899 7.13637H1.00019C0.493827 7.13637 0.0753609 6.77027 0.00913506 6.29528L0 6.16323C0 5.67056 0.376271 5.26341 0.86447 5.19898L1.00019 5.19009H2.21775L2.73249 3.19419C3.21485 1.31695 4.94843 0 6.93723 0H17.069ZM4.67288 20.1116H1.99904L2.00038 21.7293C2.00038 21.9084 2.14965 22.0537 2.33377 22.0537H4.33959C4.52372 22.0537 4.67299 21.9084 4.67299 21.7293L4.67288 20.1116ZM22.0095 20.1116H19.3357L19.337 21.7293C19.337 21.9084 19.4862 22.0537 19.6704 22.0537H21.6762C21.8604 22.0537 22.0096 21.9084 22.0096 21.7293L22.0095 20.1116ZM14.337 14.2727H9.66716L9.5314 14.2816C9.04324 14.346 8.66696 14.7532 8.66696 15.2459C8.66696 15.7386 9.04324 16.1457 9.5314 16.2102L9.66716 16.219H14.337L14.4727 16.2102C14.961 16.1457 15.3372 15.7386 15.3372 15.2459C15.3372 14.7084 14.8895 14.2727 14.337 14.2727ZM18.6702 11.6777C17.9337 11.6777 17.3366 12.2586 17.3366 12.9752C17.3366 13.6917 17.9337 14.2726 18.6702 14.2726C19.4066 14.2726 20.0036 13.6917 20.0036 12.9752C20.0036 12.2586 19.4066 11.6777 18.6702 11.6777ZM5.3343 11.6777C4.5978 11.6777 4.00076 12.2586 4.00076 12.9752C4.00076 13.6917 4.5978 14.2726 5.3343 14.2726C6.07081 14.2726 6.66786 13.6917 6.66786 12.9752C6.66786 12.2586 6.07081 11.6777 5.3343 11.6777ZM17.069 1.94628H6.93723C5.86633 1.94628 4.93286 2.6554 4.67314 3.66623L3.61479 7.78513H20.3944L19.3327 3.66482C19.0725 2.65468 18.1393 1.94628 17.069 1.94628Z" fill="#009444"/>
</svg>
